{
  "source": "C:\\Users\\Peter\\Desktop\\stuff\\MIUN\\quantitative_research\\video_compression\\videos\\BVI-HD\\BVI-HD_CDVL_videos\\ORIG\\FishAndRock_1920x1080_30fps.mp4",
  "output": "C:\\Users\\Peter\\Desktop\\stuff\\MIUN\\quantitative_research\\video_compression\\compressed_videos\\BVI-HD\\vp9\\4\\FishAndRock_1920x1080_30fps_vp9.webm",
  "codec": "vp9",
  "ok": "Input #0, mov,mp4,m4a,3gp,3g2,mj2, from 'C:\\Users\\Peter\\Desktop\\stuff\\MIUN\\quantitative_research\\video_compression\\videos\\BVI-HD\\BVI-HD_CDVL_videos\\ORIG\\FishAndRock_1920x1080_30fps.mp4':\n  Metadata:\n    major_brand     : isom\n    minor_version   : 512\n    compatible_brands: isomiso2avc1mp41\n    encoder         : Lavf54.28.101\n  Duration: 00:00:05.00, start: 0.000000, bitrate: 251564 kb/s\n  Stream #0:0[0x1](und): Video: h264 (High 4:4:4 Predictive) (avc1 / 0x31637661), yuv420p(progressive), 1920x1080, 251561 kb/s, 30 fps, 30 tbr, 30 tbn (default)\n    Metadata:\n      handler_name    : VideoHandler\n      vendor_id       : [0][0][0][0]\n[out#0/webm @ 0000016e6c649240] Codec AVOption b:a (set bitrate (in bits/s)) has not been used for any stream. The most likely reason is either wrong type (e.g. a video option with no video streams) or that it is a private option of some decoder which was not actually used for any stream.\nStream mapping:\n  Stream #0:0 -> #0:0 (h264 (native) -> vp9 (libvpx-vp9))\nPress [q] to stop, [?] for help\n[libvpx-vp9 @ 0000016e6e6c04c0] v1.15.2-100-g40561f514\nOutput #0, webm, to 'C:\\Users\\Peter\\Desktop\\stuff\\MIUN\\quantitative_research\\video_compression\\compressed_videos\\BVI-HD\\vp9\\4\\FishAndRock_1920x1080_30fps_vp9.webm':\n  Metadata:\n    major_brand     : isom\n    minor_version   : 512\n    compatible_brands: isomiso2avc1mp41\n    encoder         : Lavf62.3.100\n  Stream #0:0(und): Video: vp9, yuv420p(tv, progressive), 1920x1080, q=2-31, 4000 kb/s, 30 fps, 1k tbn (default)\n    Metadata:\n      encoder         : Lavc62.11.100 libvpx-vp9\n      handler_name    : VideoHandler\n      vendor_id       : [0][0][0][0]\n    Side data:\n      cpb: bitrate max/min/avg: 0/0/0 buffer size: 4000000 vbv_delay: N/A\nframe=    0 fps=0.0 q=0.0 size=       0KiB time=N/A bitrate=N/A speed=N/A elapsed=0:00:00.53    \nframe=    4 fps=3.5 q=41.0 size=       1KiB time=00:00:00.13 bitrate=  38.0kbits/s speed=0.117x elapsed=0:00:01.14    \nframe=    9 fps=5.3 q=37.0 size=       1KiB time=00:00:00.30 bitrate=  16.9kbits/s speed=0.177x elapsed=0:00:01.69    \nframe=   13 fps=5.9 q=35.0 size=       1KiB time=00:00:00.43 bitrate=  11.7kbits/s speed=0.197x elapsed=0:00:02.19    \nframe=   18 fps=6.6 q=37.0 size=       1KiB time=00:00:00.60 bitrate=   8.5kbits/s speed=0.22x elapsed=0:00:02.72    \nframe=   23 fps=7.0 q=33.0 size=       1KiB time=00:00:00.76 bitrate=   6.6kbits/s speed=0.234x elapsed=0:00:03.27    \nframe=   27 fps=7.1 q=33.0 size=       1KiB time=00:00:00.90 bitrate=   5.6kbits/s speed=0.237x elapsed=0:00:03.79    \nframe=   32 fps=7.4 q=33.0 size=       1KiB time=00:00:01.06 bitrate=   4.8kbits/s speed=0.247x elapsed=0:00:04.31    \nframe=   37 fps=7.6 q=32.0 size=       1KiB time=00:00:01.23 bitrate=   4.1kbits/s speed=0.254x elapsed=0:00:04.85    \nframe=   41 fps=7.6 q=23.0 size=       1KiB time=00:00:01.36 bitrate=   3.7kbits/s speed=0.254x elapsed=0:00:05.38    \nframe=   45 fps=7.6 q=29.0 size=       1KiB time=00:00:01.50 bitrate=   3.4kbits/s speed=0.254x elapsed=0:00:05.91    \nframe=   50 fps=7.8 q=30.0 size=       1KiB time=00:00:01.66 bitrate=   3.0kbits/s speed=0.259x elapsed=0:00:06.43    \nframe=   53 fps=7.6 q=26.0 size=       1KiB time=00:00:01.76 bitrate=   2.9kbits/s speed=0.254x elapsed=0:00:06.96    \nframe=   58 fps=7.8 q=28.0 size=       1KiB time=00:00:01.93 bitrate=   2.6kbits/s speed=0.258x elapsed=0:00:07.48    \nframe=   62 fps=7.7 q=34.0 size=       1KiB time=00:00:02.06 bitrate=   2.5kbits/s speed=0.257x elapsed=0:00:08.02    \nframe=   66 fps=7.7 q=30.0 size=       1KiB time=00:00:02.20 bitrate=   2.3kbits/s speed=0.257x elapsed=0:00:08.56    \nframe=   70 fps=7.7 q=30.0 size=       1KiB time=00:00:02.33 bitrate=   2.2kbits/s speed=0.257x elapsed=0:00:09.08    \nframe=   74 fps=7.7 q=28.0 size=       1KiB time=00:00:02.46 bitrate=   2.1kbits/s speed=0.257x elapsed=0:00:09.60    \nframe=   78 fps=7.7 q=31.0 size=       1KiB time=00:00:02.60 bitrate=   2.0kbits/s speed=0.256x elapsed=0:00:10.15    \nframe=   82 fps=7.7 q=29.0 size=       1KiB time=00:00:02.73 bitrate=   1.9kbits/s speed=0.256x elapsed=0:00:10.66    \nframe=   86 fps=7.7 q=31.0 size=       1KiB time=00:00:02.86 bitrate=   1.8kbits/s speed=0.256x elapsed=0:00:11.18    \nframe=   90 fps=7.7 q=31.0 size=       1KiB time=00:00:03.00 bitrate=   1.7kbits/s speed=0.256x elapsed=0:00:11.70    \nframe=   94 fps=7.7 q=31.0 size=       1KiB time=00:00:03.13 bitrate=   1.6kbits/s speed=0.256x elapsed=0:00:12.23    \nframe=   98 fps=7.7 q=31.0 size=       1KiB time=00:00:03.26 bitrate=   1.6kbits/s speed=0.256x elapsed=0:00:12.76    \nframe=  102 fps=7.7 q=31.0 size=       1KiB time=00:00:03.40 bitrate=   1.5kbits/s speed=0.256x elapsed=0:00:13.28    \nframe=  107 fps=7.7 q=31.0 size=       1KiB time=00:00:03.56 bitrate=   1.4kbits/s speed=0.258x elapsed=0:00:13.82    \nframe=  111 fps=7.7 q=30.0 size=       1KiB time=00:00:03.70 bitrate=   1.4kbits/s speed=0.258x elapsed=0:00:14.35    \nframe=  115 fps=7.7 q=23.0 size=       1KiB time=00:00:03.83 bitrate=   1.3kbits/s speed=0.258x elapsed=0:00:14.88    \nframe=  119 fps=7.7 q=31.0 size=       1KiB time=00:00:03.96 bitrate=   1.3kbits/s speed=0.258x elapsed=0:00:15.40    \nframe=  123 fps=7.7 q=32.0 size=       1KiB time=00:00:04.10 bitrate=   1.2kbits/s speed=0.258x elapsed=0:00:15.92    \nframe=  126 fps=7.7 q=32.0 size=       1KiB time=00:00:04.20 bitrate=   1.2kbits/s speed=0.255x elapsed=0:00:16.44    \nframe=  126 fps=7.4 q=32.0 size=       1KiB time=00:00:04.20 bitrate=   1.2kbits/s speed=0.248x elapsed=0:00:16.95    \nframe=  126 fps=7.2 q=32.0 size=       1KiB time=00:00:04.20 bitrate=   1.2kbits/s speed=0.24x elapsed=0:00:17.46    \nframe=  126 fps=7.0 q=32.0 size=       1KiB time=00:00:04.20 bitrate=   1.2kbits/s speed=0.233x elapsed=0:00:17.99    \nframe=  126 fps=6.8 q=32.0 size=       1KiB time=00:00:04.20 bitrate=   1.2kbits/s speed=0.227x elapsed=0:00:18.53    \nframe=  126 fps=6.6 q=32.0 size=       1KiB time=00:00:04.20 bitrate=   1.2kbits/s speed=0.22x elapsed=0:00:19.07    \n[out#0/webm @ 0000016e6c649240] video:2638KiB audio:0KiB subtitle:0KiB other streams:0KiB global headers:0KiB muxing overhead: 0.065771%\nframe=  150 fps=7.8 q=31.0 Lsize=    2640KiB time=00:00:05.00 bitrate=4325.7kbits/s speed=0.259x elapsed=0:00:19.27    \n",
  "seconds": 19.543515920639038,
  "probe_out": {}
}